<?xml version="1.0" encoding="UTF-8"?>
<svg style="enable-background:new 0 0 45 45" version="1.1" viewBox="0 0 45 45" xml:space="preserve" xmlns="http://www.w3.org/2000/svg">
    <g transform="matrix(1.0385 0 0 1.0385 .1976 -1.1549)">
        <path d="m40.471 9.2216c-0.26039-0.32875-2.2271-3.0249-4.6384-2.4089 0.09396 1.7679 0.10457 3.7919-2.9918 5.0373-6.4813 2.6068-14.856 5.3563-20.261 5.8659-10.792 1.0174-7.4262-3.7661-3.8042-6.1918-1.2332 0.36508-6.3263 1.3956-8.5138 7.2813-1.0937 12.344 7.93 26.44 23.699 24.844 16.459-1.6662 22.604-15.52 16.51-34.428"/>
        <g transform="matrix(1.4629 0 0 -1.25 35.902 3.6353)">
            <path d="m-1.2294-5.4915c1.3323 1.5 1.1005 6.062 0.4923 6.812-0.89745 0.813-1.7958-1.645-4.4613-2.395-0.6564 1.375-1.374 1.851-1.3907 1.864-0.77229 0.594-2.4337 0.511-2.8972-1.906-1.5937 1.5-4.935 1.636-5.1381 0.833-1.2358-4.896-2.9362-5.541-4.7904-7.583-2.7897-3.072 2.5116-3.687 7.9-1.875 5.3893 1.812 9.8195 3.8346 9.8195 3.8346"/>
        </g>
    </g>
</svg>
